#Comment line ignore any data following # character
#Hierarchical Translation and Rotation (.htr) file
[Header]		#Header keywords are followed by a single value
FileType htr		#Single word string
DataType HTRS		#Translation followed by rotation and scale data
FileVersion 1		#integer
NumSegments 15		#integer
NumFrames 5		#integer
DataFrameRate 60		#integer, data frame rate in this file
EulerRotationOrder ZYX
CalibrationUnits mm
RotationUnits Degrees
GlobalAxisofGravity Y
BoneLengthAxis Y
ScaleFactor 1.000000
[SegmentNames&Hierarchy]
#CHILD	PARENT
1cou	1buste
1buste	1bassin
1brasG	1buste
1brasD	1buste
1avbrasG	1brasG
1avbrasD	1brasD
1mainG	1avbrasG
1mainD	1avbrasD
1bassin	GLOBAL
1cuisseG	1bassin
1cuisseD	1bassin
1moletG	1cuisseG
1moletD	1cuisseD
1piedG	1moletG
1piedD	1moletD
[BasePosition]
#SegmentName Tx, Ty, Tz, Rx, Ry, Rz, BoneLength
1cou	0.000002	394.639771	0.000003	47.447697	-6.500580	2.097482	232.574402
1buste	0.331046	98.159424	9.920088	5.813737	-6.959647	-0.900074	394.639771
1brasG	222.293304	333.760773	-3.143221	-5.521868	-4.449825	-174.025208	338.016541
1brasD	-186.675308	347.235016	-30.968008	-5.508482	16.777920	169.824814	318.101379
1avbrasG	0.000004	338.016571	-0.000002	34.403133	17.432653	23.106703	253.821075
1avbrasD	-0.000007	318.101410	-0.000013	32.381824	-10.529597	-11.344105	276.946075
1mainG	0.000006	253.821091	-0.000001	-3.773718	-0.485368	-1.748444	73.639816
1mainD	-0.000031	276.946106	-0.000010	-3.909555	0.199285	0.225476	80.942635
1bassin	396.031860	1037.839600	833.112305	178.297836	19.764000	-179.799622	97.859962
1cuisseG	108.625954	-0.934603	-40.474510	172.403458	-4.353497	-0.165467	517.714233
1cuisseD	-106.972656	-1.326527	-48.733826	172.076172	-12.757409	2.045154	501.698334
1moletG	0.000006	517.714233	-0.000009	157.872192	5.331374	176.676331	488.075745
1moletD	-0.000005	501.698303	0.000003	156.316269	3.295414	-177.725830	511.880615
1piedG	0.000002	488.075745	-0.000006	99.880898	-0.000004	0.000000	242.425140
1piedD	-0.000009	511.880646	-0.000013	102.622849	0.000000	0.000000	237.138092
#Beginning of Data. Separated by tabs
[1cou]
#Fr	Tx	Ty	Tz	Rx	Ry	Rz	SF
25	-0.000005	-41.048523	0.000001	-19.446428	-2.771662	-1.738719	0.939831
26	0.000004	-40.986481	0.000008	-19.396135	-2.935028	-1.187463	0.939123
27	-0.000020	-41.215332	-0.000004	-19.171268	-3.456220	-0.570454	0.940382
28	-0.000002	-41.138184	-0.000010	-18.864973	-3.981920	0.188848	0.942474
29	0.000015	-40.190216	-0.000003	-18.608109	-4.225414	0.492216	0.945178
[1buste]
#Fr	Tx	Ty	Tz	Rx	Ry	Rz	SF
25	2.271787	-14.170601	17.525723	12.442230	14.513108	0.115202	0.895985
26	2.431735	-14.486649	18.507885	13.097335	14.234810	0.029615	0.896142
27	2.604976	-14.879662	19.450996	13.734067	13.828696	-0.107092	0.895562
28	2.986391	-14.991013	19.782125	13.947465	14.088991	-0.273545	0.895758
29	2.814526	-14.775696	19.902998	13.988852	14.052050	-0.156287	0.898160
[1brasG]
#Fr	Tx	Ty	Tz	Rx	Ry	Rz	SF
25	-56.373703	-31.936127	8.864372	49.262520	-19.875528	0.444778	0.903128
26	-56.439209	-32.100037	9.522715	50.363998	-19.229216	-0.249567	0.906403
27	-56.399704	-32.515320	10.166027	50.966988	-18.334219	-0.703486	0.908252
28	-56.380859	-32.373749	10.868723	51.055820	-16.969212	-0.166948	0.907703
29	-56.481720	-31.176758	11.776769	50.599396	-15.088743	1.738320	0.904395
[1brasD]
#Fr	Tx	Ty	Tz	Rx	Ry	Rz	SF
25	12.381714	-48.952148	49.916588	45.589226	4.700380	6.373032	0.905139
26	11.987823	-48.623810	50.970322	46.260342	3.788415	6.357508	0.906484
27	11.499893	-47.664001	51.895004	46.711174	2.552966	5.957101	0.907307
28	11.448441	-47.962891	51.437454	47.154488	1.260600	5.324811	0.906591
29	11.282913	-47.292755	51.244728	47.424538	-0.130122	4.374666	0.905982
[1avbrasG]
#Fr	Tx	Ty	Tz	Rx	Ry	Rz	SF
25	0.000007	-32.744385	0.000005	36.016666	-34.934414	-23.352505	1.128785
26	-0.000015	-31.637451	0.000010	36.766212	-35.096222	-23.884068	1.127685
27	-0.000009	-31.012360	-0.000008	37.398727	-35.071400	-24.106571	1.128221
28	-0.000003	-31.197815	0.000023	37.931190	-35.062752	-24.318893	1.129237
29	-0.000003	-32.316010	0.000001	38.466103	-34.923275	-24.322887	1.133872
[1avbrasD]
#Fr	Tx	Ty	Tz	Rx	Ry	Rz	SF
25	0.000002	-30.175385	0.000004	37.400028	16.570349	12.225497	1.013966
26	0.000005	-29.747528	0.000006	38.379604	16.110645	11.716475	1.015208
27	0.000008	-29.485687	0.000031	38.909119	15.675543	11.105461	1.017188
28	0.000004	-29.713440	0.000011	38.756596	15.313742	10.459575	1.019321
29	0.000017	-29.907288	0.000028	38.353657	14.840622	9.602283	1.020627
[1mainG]
#Fr	Tx	Ty	Tz	Rx	Ry	Rz	SF
25	0.000010	32.688400	0.000033	1.220799	0.379865	1.955022	1.103642
26	-0.000006	32.409195	0.000029	1.251019	0.380803	1.961761	1.101989
27	0.000009	32.545029	0.000013	1.283594	0.381363	1.961529	1.102053
28	0.000014	32.802963	0.000003	1.304554	0.381128	1.964181	1.102820
29	-0.000005	33.979630	-0.000017	1.332138	0.379969	1.964296	1.107354
[1mainD]
#Fr	Tx	Ty	Tz	Rx	Ry	Rz	SF
25	0.000041	3.867706	0.000000	1.793253	-0.163591	-0.817548	0.977546
26	-0.000014	4.211884	0.000011	1.865896	-0.163213	-0.806375	0.978073
27	0.000014	4.760132	0.000023	1.910627	-0.163549	-0.796567	0.979678
28	0.000028	5.350739	-0.000008	1.903311	-0.164706	-0.789356	0.981965
29	0.000060	5.712616	0.000012	1.877748	-0.166850	-0.779706	0.983563
[1bassin]
#Fr	Tx	Ty	Tz	Rx	Ry	Rz	SF
25	-95.355316	-152.712219	-1300.291138	-179.433411	-72.989845	-151.045975	0.915586
26	-99.147552	-162.888855	-1300.766602	-178.315720	-72.922302	-152.559830	0.917188
27	-102.604645	-172.697327	-1300.896362	-176.633469	-72.845413	-154.754761	0.921203
28	-106.328186	-182.738586	-1299.662598	-175.012115	-72.169670	-156.606110	0.919482
29	-111.216339	-192.525024	-1298.750977	-173.632355	-71.801140	-157.935806	0.919919
[1cuisseG]
#Fr	Tx	Ty	Tz	Rx	Ry	Rz	SF
25	-6.303772	-1.976954	-7.844849	-57.366089	-22.780054	-10.412997	0.973768
26	-6.072365	-2.040381	-7.701229	-58.047047	-22.652107	-10.215054	0.971325
27	-5.468575	-2.047364	-7.145161	-58.121143	-22.117813	-10.282203	0.969185
28	-5.616493	-1.993216	-7.179996	-58.227448	-22.336010	-10.941552	0.967640
29	-5.676025	-2.068681	-7.315048	-59.326447	-22.732937	-10.927244	0.966391
[1cuisseD]
#Fr	Tx	Ty	Tz	Rx	Ry	Rz	SF
25	3.080605	-2.461055	8.352406	-58.019791	-7.404295	-8.836457	1.093079
26	2.858231	-2.597070	8.460014	-59.034615	-7.364032	-8.902872	1.089412
27	2.491150	-2.776429	7.845726	-59.986603	-7.329875	-8.901401	1.086221
28	2.645241	-2.932517	7.798920	-61.028217	-7.944922	-9.151387	1.082731
29	2.593025	-2.863927	8.213181	-62.274117	-8.471929	-9.496555	1.079736
[1moletG]
#Fr	Tx	Ty	Tz	Rx	Ry	Rz	SF
25	-0.000024	-13.580505	0.000042	-41.541115	3.691441	-1.824158	0.917525
26	-0.000007	-14.845306	-0.000001	-43.073135	3.401820	-1.356351	0.916828
27	-0.000006	-15.953186	0.000004	-44.152275	2.293773	-0.797969	0.916992
28	-0.000000	-16.753235	-0.000019	-45.525616	1.435155	-0.828123	0.913648
29	-0.000027	-17.399597	0.000036	-47.149471	1.322074	-0.672801	0.912568
[1moletD]
#Fr	Tx	Ty	Tz	Rx	Ry	Rz	SF
25	-0.000006	46.697449	0.000008	-51.058609	3.417967	-2.076128	0.882996
26	0.000033	44.857788	-0.000038	-53.102520	2.473532	-2.215387	0.882237
27	0.000006	43.256897	-0.000030	-55.100353	1.411260	-2.434656	0.880532
28	0.000014	41.506165	0.000016	-56.917526	0.220187	-2.655243	0.879398
29	-0.000025	40.003662	-0.000019	-58.579693	-0.618588	-3.269449	0.879283
[1piedG]
#Fr	Tx	Ty	Tz	Rx	Ry	Rz	SF
25	0.000032	-40.253937	0.000005	5.874375	0.000000	0.000001	1.021202
26	-0.000004	-40.594238	0.000053	6.760211	-0.000002	-0.000011	1.021345
27	0.000007	-40.514343	0.000012	7.970723	-0.000002	-0.000007	1.022061
28	-0.000001	-42.146210	0.000029	8.884716	-0.000001	-0.000006	1.025226
29	-0.000027	-42.673218	0.000013	9.028731	-0.000000	-0.000002	1.024764
[1piedD]
#Fr	Tx	Ty	Tz	Rx	Ry	Rz	SF
25	-0.000004	-59.892181	0.000017	9.522101	-0.000002	0.000001	1.025253
26	0.000012	-60.280945	-0.000002	9.917237	-0.000000	-0.000004	1.028615
27	0.000020	-61.153412	-0.000020	10.159648	0.000001	0.000001	1.032861
28	-0.000015	-61.734039	0.000010	10.369063	-0.000000	0.000001	1.033651
29	0.000013	-61.792572	-0.000010	10.716367	0.000002	-0.000000	1.037600
[EndOfFile]
